<svg width="53" height="53" viewBox="0 0 53 53" fill="none" xmlns="http://www.w3.org/2000/svg">
<path d="M2.03262 26.7946C1.4123 26.7946 0.921812 26.6154 0.558754 26.2547C-0.501567 25.2041 -0.0519524 23.0108 1.90038 19.7355C3.65316 16.7941 6.41817 13.3324 9.6905 9.98678C12.9628 6.64119 16.3578 3.80156 19.2502 1.99078C22.4696 -0.0233445 24.6408 -0.512352 25.7011 0.538288C26.7614 1.58893 26.3118 3.7822 24.3595 7.05758C22.6067 9.99888 19.8417 13.4607 16.5694 16.8063C13.297 20.1518 9.90208 22.9915 7.00964 24.8022C4.889 26.1289 3.22278 26.7946 2.03022 26.7946H2.03262ZM24.2176 1.31295C23.5083 1.31295 22.1643 1.70997 19.9331 3.10436C17.1248 4.86189 13.8164 7.63131 10.6138 10.9043C7.41117 14.1772 4.71348 17.5543 3.0136 20.4084C1.10935 23.6064 1.14542 25.0008 1.47 25.3203C1.79219 25.6399 3.1771 25.6592 6.3244 23.6887C9.13269 21.9311 12.4411 19.1617 15.6437 15.8888C18.8439 12.6134 21.544 9.23874 23.2439 6.38459C25.1481 3.18667 25.112 1.79228 24.7874 1.47273C24.6937 1.37831 24.5085 1.31295 24.2176 1.31295Z" fill="white"/>
<path d="M23.6746 52.4149C20.6259 52.4149 17.38 51.679 14.2736 50.1321C10.0612 48.0356 6.72393 44.7796 4.87738 40.962C3.00439 37.0886 2.88176 33.0991 4.53596 29.7317C7.91889 22.8372 17.7936 20.7723 26.5478 25.1273C35.2997 29.4824 39.6684 38.6356 36.2855 45.5301C34.1023 49.9771 29.2167 52.4173 23.6746 52.4173V52.4149ZM17.1276 24.1469C12.0784 24.1469 7.66403 26.3232 5.70448 30.3127C4.23301 33.3097 4.35563 36.8877 6.0483 40.3882C7.76982 43.9469 10.8955 46.9898 14.8506 48.958C22.9605 52.9959 32.0514 51.1924 35.1194 44.9491C38.1849 38.7033 34.0807 30.337 25.9708 26.3014C23.0399 24.8441 19.9815 24.1469 17.1252 24.1469H17.1276Z" fill="white"/>
<path d="M45.2656 32.6847C43.7437 32.6847 42.0871 32.307 40.3631 31.5493C36.8792 30.0193 33.5107 27.1047 30.878 23.3427C25.3744 15.4823 24.843 6.28555 29.6926 2.84071C34.5446 -0.604129 42.9695 2.9908 48.473 10.8512C51.1058 14.6132 52.7023 18.7867 52.962 22.6043C53.2313 26.5406 52.0579 29.649 49.656 31.3532C48.4081 32.2392 46.915 32.6847 45.2632 32.6847H45.2656ZM34.1094 2.8165C32.7437 2.8165 31.4911 3.16994 30.4404 3.91314C26.175 6.93917 26.8483 15.3177 31.9383 22.5898C34.4364 26.1581 37.6126 28.9154 40.8825 30.351C44.0442 31.7381 46.8934 31.7163 48.9058 30.2856C50.9207 28.8549 51.8992 26.1605 51.6636 22.6988C51.4184 19.1159 49.9084 15.1797 47.4079 11.6114C43.5706 6.13061 38.2978 2.81892 34.1094 2.81892V2.8165Z" fill="white"/>
</svg>
