<svg width="174" height="39" viewBox="0 0 174 39" fill="none" xmlns="http://www.w3.org/2000/svg">
<path d="M12.6625 38.8344C10.3104 38.8344 8.17472 38.384 6.25791 37.4832C4.34109 36.5824 2.8187 35.2772 1.69074 33.5652C0.562779 31.8532 0 29.7804 0 27.3492C0 25.2085 0.418472 23.4675 1.25783 22.1308C2.09478 20.7917 3.21553 19.7432 4.61767 18.9804C6.01981 18.2176 7.56865 17.6461 9.26901 17.266C10.9694 16.8858 12.6794 16.5807 14.4038 16.3531C16.6597 16.0601 18.4923 15.8373 19.9017 15.6847C21.311 15.5297 22.3428 15.2682 22.9946 14.8929C23.6463 14.52 23.9734 13.871 23.9734 12.946V12.7523C23.9734 10.3525 23.3241 8.48556 22.0277 7.15614C20.7314 5.82673 18.7689 5.16082 16.1426 5.16082C13.5163 5.16082 11.2844 5.76135 9.738 6.96242C8.19156 8.16349 7.10448 9.44447 6.47436 10.8078L1.06062 8.86089C2.02745 6.58951 3.31895 4.81696 4.93994 3.54324C6.55853 2.26953 8.33105 1.37841 10.2575 0.867469C12.1815 0.35653 14.0791 0.0998492 15.9502 0.0998492C17.1431 0.0998492 18.5164 0.242719 20.07 0.526036C21.6237 0.809353 23.1317 1.39052 24.5891 2.26468C26.0466 3.14127 27.2587 4.46342 28.2255 6.23112C29.1924 7.99883 29.6758 10.3671 29.6758 13.3359V37.9602H23.971V32.8993H23.68C23.2928 33.7105 22.6482 34.5774 21.7464 35.5024C20.8445 36.4274 19.6443 37.2144 18.146 37.8634C16.6477 38.5123 14.8198 38.8368 12.6601 38.8368L12.6625 38.8344ZM13.5307 33.6766C15.7867 33.6766 17.6915 33.231 19.2451 32.3375C20.7988 31.4464 21.9772 30.2937 22.7733 28.882C23.5718 27.4702 23.9686 25.9858 23.9686 24.4288V19.1741C23.7281 19.4671 23.199 19.7311 22.3861 19.966C21.5732 20.2008 20.6376 20.4043 19.5818 20.5738C18.526 20.7433 17.5039 20.891 16.513 21.0121C15.5221 21.1331 14.7212 21.2348 14.108 21.3172C12.6265 21.5109 11.2436 21.8233 9.96407 22.2543C8.68459 22.6853 7.65283 23.3246 6.8712 24.177C6.08956 25.0293 5.69994 26.1844 5.69994 27.6446C5.69994 29.6399 6.43588 31.1437 7.91017 32.1583C9.38446 33.1729 11.258 33.679 13.5283 33.679L13.5307 33.6766Z" fill="white"/>
<path d="M63.5097 22.6776V0.583677H69.212V37.9598H63.5097V31.6323H63.1225C62.2519 33.5308 60.8978 35.1411 59.0628 36.4633C57.2253 37.7854 54.9069 38.4465 52.1026 38.4465C49.7817 38.4465 47.7206 37.9307 45.9168 36.9016C44.1131 35.8724 42.6941 34.3154 41.6623 32.2305C40.6306 30.1455 40.1159 27.5133 40.1159 24.3339V0.583677H45.8206V23.944C45.8206 26.6682 46.583 28.8428 48.1054 30.4652C49.6278 32.0876 51.5735 32.8988 53.9425 32.8988C55.359 32.8988 56.8069 32.5332 58.2812 31.8043C59.7554 31.0754 60.9964 29.9542 62.0042 28.4456C63.0119 26.937 63.5145 25.0143 63.5145 22.6776H63.5097Z" fill="white"/>
<path d="M79.6508 37.9597V0.583585H85.1607V6.22814H85.5479C86.2237 4.3781 87.4479 2.87918 89.2204 1.72654C90.9929 0.573899 92.9915 0 95.2138 0C95.6322 0 96.1565 0.00726464 96.7843 0.0242152C97.412 0.0411658 97.8882 0.0653808 98.2104 0.0968605V5.93755C98.018 5.88912 97.5779 5.81164 96.8925 5.70751C96.207 5.60339 95.4855 5.55011 94.7304 5.55011C92.9266 5.55011 91.3176 5.92787 89.9082 6.68096C88.4989 7.43647 87.3878 8.47288 86.5725 9.79503C85.7596 11.1172 85.3531 12.6209 85.3531 14.3087V37.9597H79.6484H79.6508Z" fill="white"/>
<path d="M120.541 38.7361C116.964 38.7361 113.883 37.937 111.296 36.3388C108.71 34.7406 106.719 32.5031 105.326 29.6239C103.934 26.7447 103.236 23.3909 103.236 19.5625C103.236 15.7341 103.934 12.3561 105.326 9.42845C106.719 6.50084 108.669 4.21251 111.175 2.56588C113.681 0.919249 116.608 0.0959336 119.961 0.0959336C121.895 0.0959336 123.804 0.420417 125.69 1.06938C127.575 1.71835 129.29 2.76929 130.836 4.21977C132.383 5.67268 133.617 7.59052 134.533 9.9733C135.452 12.3585 135.911 15.2934 135.911 18.7828V21.2164H107.298V16.2523H130.113C130.113 14.1431 129.699 12.2616 128.869 10.6077C128.039 8.95384 126.863 7.64864 125.341 6.68972C123.819 5.73322 122.027 5.25376 119.963 5.25376C117.691 5.25376 115.73 5.81797 114.078 6.94398C112.426 8.07241 111.158 9.535 110.271 11.3366C109.384 13.1382 108.941 15.0682 108.941 17.1289V20.4391C108.941 23.2626 109.429 25.6502 110.403 27.6044C111.377 29.5585 112.736 31.0429 114.475 32.0575C116.216 33.0721 118.236 33.5782 120.541 33.5782C122.039 33.5782 123.395 33.3627 124.612 32.9341C125.829 32.5055 126.88 31.8565 127.765 30.9872C128.65 30.1203 129.336 29.0379 129.819 27.7375L135.329 29.2946C134.749 31.1761 133.773 32.8276 132.405 34.2466C131.036 35.6656 129.343 36.7698 127.33 37.5568C125.317 38.3438 123.051 38.7361 120.538 38.7361H120.541Z" fill="white"/>
<path d="M150.318 15.4765V37.9602H144.613V0.584152H150.123V6.42485H150.606C151.477 4.52638 152.797 2.9984 154.57 1.8385C156.342 0.678591 158.63 0.0998492 161.434 0.0998492C163.947 0.0998492 166.148 0.615632 168.031 1.64478C169.916 2.67392 171.381 4.23338 172.43 6.31588C173.476 8.4008 174 11.033 174 14.2124V37.9602H168.298V14.5999C168.298 11.665 167.54 9.37183 166.025 7.7252C164.51 6.07857 162.432 5.25525 159.789 5.25525C157.968 5.25525 156.345 5.65238 154.919 6.44664C153.492 7.2409 152.369 8.4008 151.547 9.92636C150.724 11.4519 150.315 13.2995 150.315 15.474L150.318 15.4765Z" fill="white"/>
</svg>
