<svg width="6" height="8" viewBox="0 0 6 8" fill="none" xmlns="http://www.w3.org/2000/svg">
<path fill-rule="evenodd" clip-rule="evenodd" d="M2.16593 2.38242C2.16593 2.03957 2.43988 1.9077 2.89362 1.9077C3.54425 1.9077 4.36611 2.1099 5.01674 2.47034V0.404397C4.30618 0.114286 3.60418 0 2.89362 0C1.15573 0 0 0.931871 0 2.48792C0 4.9143 3.25318 4.52748 3.25318 5.57364C3.25318 5.97804 2.91074 6.10991 2.43132 6.10991C1.72076 6.10991 0.813295 5.811 0.094171 5.40661V7.49892C0.890344 7.85057 1.69508 8.00002 2.43132 8.00002C4.21201 8.00002 5.43623 7.09452 5.43623 5.52089C5.42767 2.90111 2.16593 3.36704 2.16593 2.38242Z" fill="#6461FC"/>
</svg>
