<svg width="11" height="13" viewBox="0 0 11 13" fill="none" xmlns="http://www.w3.org/2000/svg">
<path fill-rule="evenodd" clip-rule="evenodd" d="M4.50694 3.73041C4.53556 3.53999 4.65361 3.38446 4.81263 3.30601C4.88524 3.27005 4.96534 3.25023 5.0503 3.25023H8.49681C8.90505 3.25023 9.28625 3.27792 9.63409 3.33601C9.73349 3.35243 9.83001 3.37143 9.92429 3.39274C10.018 3.41445 10.1094 3.43875 10.1981 3.46535C10.2421 3.47892 10.2857 3.49304 10.3283 3.50701C10.4994 3.56565 10.6584 3.635 10.8051 3.71494C10.9777 2.57774 10.8037 1.80345 10.2088 1.10232C9.55294 0.330343 8.36931 0 6.85464 0H2.45731C2.14794 0 1.88401 0.232489 1.83621 0.548989L0.00468729 12.5484C-0.0314231 12.7858 0.145715 13 0.377347 13H3.09206L4.50694 3.73041Z" fill="#28356A"/>
</svg>
