<svg width="9" height="11" viewBox="0 0 9 11" fill="none" xmlns="http://www.w3.org/2000/svg">
<path fill-rule="evenodd" clip-rule="evenodd" d="M7.82609 0C7.81322 0.085875 7.79826 0.173632 7.78162 0.263807C7.20744 3.31096 5.24292 4.36364 2.73399 4.36364H1.45651C1.14965 4.36364 0.891036 4.59384 0.843318 4.9067L0.00401729 10.4093C-0.0270583 10.6148 0.126109 10.7998 0.326605 10.7998H2.59239C2.86063 10.7998 3.08856 10.5984 3.13082 10.3249L3.15305 10.206L3.57966 7.40783L3.60709 7.25436C3.64883 6.97993 3.87728 6.77835 4.14552 6.77835H4.48436C6.67954 6.77835 8.39806 5.85724 8.90034 3.19149C9.11007 2.07793 9.0015 1.14809 8.4463 0.494151C8.27831 0.297001 8.06988 0.133315 7.82609 0Z" fill="#298FC2"/>
</svg>
