<svg width="7" height="6" viewBox="0 0 7 6" fill="none" xmlns="http://www.w3.org/2000/svg">
<path fill-rule="evenodd" clip-rule="evenodd" d="M6.39803 0.213536C6.31004 0.186996 6.21932 0.163015 6.12626 0.141325C6.03267 0.120173 5.93686 0.101447 5.83819 0.0850103C5.49291 0.0273488 5.11451 0 4.70927 0H1.28808C1.20374 0 1.12371 0.0196696 1.05215 0.0552365C0.894303 0.133645 0.777122 0.288038 0.748707 0.477055L0.0208553 5.24168L0 5.38057C0.0478369 5.06694 0.307095 4.83616 0.614711 4.83616H1.89536C4.41051 4.83616 6.37991 3.78033 6.95552 0.726158C6.97272 0.635759 6.98719 0.547784 7.0001 0.461696C6.8545 0.381806 6.69678 0.313501 6.52694 0.2553C6.48497 0.240885 6.44169 0.227009 6.39803 0.213536Z" fill="#22284F"/>
</svg>
