<svg width="11" height="14" viewBox="0 0 11 14" fill="none" xmlns="http://www.w3.org/2000/svg">
<path fill-rule="evenodd" clip-rule="evenodd" d="M2.90568 13.6153L3.15057 12.0075L2.60504 11.9943H0L1.81041 0.129745C1.81605 0.093818 1.83428 0.0604665 1.86091 0.0367409C1.88767 0.0130152 1.92177 0 1.95745 0H6.34994C7.80829 0 8.81463 0.313585 9.33996 0.932621C9.5863 1.22302 9.74318 1.52658 9.81913 1.8605C9.89875 2.21096 9.90006 2.62962 9.82241 3.14033L9.81677 3.17747V3.50475L10.0631 3.649C10.2705 3.76275 10.4354 3.8929 10.5618 4.0419C10.7725 4.29027 10.9088 4.60589 10.9663 4.97995C11.0259 5.36471 11.0062 5.82268 10.9088 6.34112C10.7963 6.93738 10.6147 7.45677 10.3693 7.88166C10.1436 8.2732 9.85612 8.59804 9.51468 8.84967C9.18872 9.08882 8.80151 9.27036 8.36366 9.38654C7.93933 9.5007 7.45557 9.55832 6.92499 9.55832H6.58316C6.33879 9.55832 6.10137 9.64929 5.91498 9.81238C5.72806 9.97887 5.6045 10.2064 5.56659 10.4551L5.54075 10.5999L5.10802 13.4339L5.08848 13.5379C5.08323 13.5708 5.07431 13.5872 5.0612 13.5983C5.04952 13.6085 5.03273 13.6153 5.01634 13.6153H2.90568Z" fill="#28356A"/>
</svg>
